<svg xmlns="http://www.w3.org/2000/svg" width="1120" height="380" viewBox="0 0 1120 380" role="img" aria-labelledby="title desc"><title id="title">Login: flera klienter, ett gemensamt flöde</title><desc id="desc">Schematisk målbild. Planer och exempelappar stödjer arbetet över team och plattformar.</desc><defs><marker id="arrow" markerWidth="8" markerHeight="8" refX="7" refY="4" orient="auto"><path d="M0,0 L8,4 L0,8" fill="#c57337"/></marker></defs><g font-family="Avenir Next, Trebuchet MS, sans-serif"><text x="125" y="35" font-size="21" fill="#526960" text-anchor="middle" font-weight="400">Klienter</text><text x="560" y="35" font-size="21" fill="#526960" text-anchor="middle" font-weight="400">Gemensam implementation</text><text x="955" y="35" font-size="21" fill="#526960" text-anchor="middle" font-weight="400">Gemensamt underlag</text><rect x="20" y="64" width="210" height="54" rx="12" fill="#e7ece3" stroke="none" stroke-width="2"/><text x="125" y="99" font-size="25" fill="#173c37" text-anchor="middle" font-weight="600">Webb</text><path d="M232 91 H300 V188 H366" fill="none" stroke="#c57337" stroke-width="3" marker-end="url(#arrow)"/><rect x="20" y="136" width="210" height="54" rx="12" fill="#e7ece3" stroke="none" stroke-width="2"/><text x="125" y="171" font-size="25" fill="#173c37" text-anchor="middle" font-weight="600">iOS</text><path d="M232 163 H300 V188 H366" fill="none" stroke="#c57337" stroke-width="3" marker-end="url(#arrow)"/><rect x="20" y="208" width="210" height="54" rx="12" fill="#e7ece3" stroke="none" stroke-width="2"/><text x="125" y="243" font-size="25" fill="#173c37" text-anchor="middle" font-weight="600">Android</text><path d="M232 235 H300 V188 H366" fill="none" stroke="#c57337" stroke-width="3" marker-end="url(#arrow)"/><rect x="20" y="280" width="210" height="54" rx="12" fill="#e7ece3" stroke="none" stroke-width="2"/><text x="125" y="315" font-size="25" fill="#173c37" text-anchor="middle" font-weight="600">Smart TV</text><path d="M232 307 H300 V188 H366" fill="none" stroke="#c57337" stroke-width="3" marker-end="url(#arrow)"/><rect x="370" y="115" width="370" height="148" rx="12" fill="#173c37" stroke="none" stroke-width="2"/><text x="555" y="179" font-size="30" fill="#f6f3eb" text-anchor="middle" font-weight="650">Ett inloggningsflöde</text><text x="555" y="220" font-size="24" fill="#d4e1d3" text-anchor="middle" font-weight="400">Webbimplementation</text><rect x="825" y="90" width="275" height="70" rx="12" fill="#e7ece3" stroke="none" stroke-width="2"/><text x="962" y="134" font-size="24" fill="#173c37" text-anchor="middle" font-weight="600">Planer + diagram</text><rect x="825" y="220" width="275" height="70" rx="12" fill="#e7ece3" stroke="none" stroke-width="2"/><text x="962" y="264" font-size="24" fill="#173c37" text-anchor="middle" font-weight="600">Exempelappar</text><path d="M825 125 H783 V157 H745" fill="none" stroke="#c57337" stroke-width="3" marker-end="url(#arrow)"/><path d="M825 255 H783 V222 H745" fill="none" stroke="#c57337" stroke-width="3" marker-end="url(#arrow)"/><text x="555" y="340" font-size="25" fill="#526960" text-anchor="middle" font-weight="400">Flera team prövar och fattar beslut</text></g></svg>